<?xml version="1.0" encoding="utf-8"?>
<!-- Generator: Adobe Illustrator 16.0.0, SVG Export Plug-In . SVG Version: 6.00 Build 0)  -->
<!DOCTYPE svg PUBLIC "-//W3C//DTD SVG 1.1//EN" "http://www.w3.org/Graphics/SVG/1.1/DTD/svg11.dtd">
<svg version="1.1" id="Layer_1" xmlns="http://www.w3.org/2000/svg" xmlns:xlink="http://www.w3.org/1999/xlink" x="0px" y="0px"
	 width="95.1px" height="121.5px" viewBox="0 0 95.1 121.5" enable-background="new 0 0 95.1 121.5" xml:space="preserve">
<g>
	<path d="M38.3,42.5h18.6c-0.1-0.2-0.1-0.3-0.2-0.5l-5.2-17.3h-7.9L38.5,42C38.4,42.2,38.4,42.3,38.3,42.5"/>
	<path d="M81.6,85.3h-68C12,86.1,11,87.6,11,89.4c0,0.4,0.1,0.8,0.2,1.2h72.6c0.1-0.4,0.2-0.8,0.2-1.2
		C84.2,87.6,83.1,86.1,81.6,85.3"/>
	<path d="M89.2,96.4c-0.2-1.4-1-2.6-2.2-3.3H8.1c-1.2,0.7-2,1.9-2.2,3.3c-0.1,0.7,0,1.4,0.3,2.1H89C89.2,97.8,89.3,97.1,89.2,96.4"
		/>
	<path d="M35.6,55.4h23.9c-0.2-0.4-0.3-0.9-0.3-1.4v-0.9c0-1.2,1-2.2,2.2-2.2v-0.1c1.6,0,2.9-1.3,2.9-2.9c0-1.6-1.2-2.8-2.7-2.9h-28
		c-1.5,0.1-2.7,1.4-2.7,2.9c0,1.6,1.3,2.9,2.9,2.9V51c1.2,0,2.2,1,2.2,2.2V54C35.9,54.5,35.8,55,35.6,55.4"/>
	<path d="M42.9,22.2h9.4c1.8-0.4,2.8-2.4,1.8-4.1L51.6,14c-0.6-1-1.6-1.5-2.7-1.5v0h-2.7v0c-1.1,0-2.1,0.6-2.7,1.5L41.1,18
		C40.1,19.7,41.1,21.8,42.9,22.2"/>
	<path d="M15.5,61.6v7c0,3.5,2.1,6,4.5,10c0.6,1,0.5,2.8-0.1,4.2h54.7c-0.4-1.2-0.5-2.6,0-3.3c2.5-4.1,5-7.1,5-10.9v-7
		c0,0,0-2.9-2.9-3.7H18.4C15.5,58.7,15.5,61.6,15.5,61.6"/>
	<path d="M46.2,10.2H49c3-0.6,5.2-3.3,5.2-6.5c0-1.4-0.4-2.7-1.1-3.7c0,0.1,0,0.2,0,0.4c0,3-2.5,5.5-5.5,5.5s-5.5-2.5-5.5-5.5
		c0-0.1,0-0.3,0-0.4c-0.7,1.1-1.1,2.3-1.1,3.7C40.9,6.9,43.2,9.6,46.2,10.2"/>
	<path d="M95,103.5c-0.2-0.7-0.6-1.3-1.1-1.7c-0.6-0.6-1.4-0.8-2.2-0.8H3.1c-0.5,0-1,0.1-1.4,0.4c-1,0.7-1.6,1.8-1.8,3.1v13.8
		c0,0.1,0-0.1,0,0c0,2.9,1.9,3.3,3,3.3c1,0,2.9-0.8,2.9-3.4v-6.8c0-0.6,0.4-1,1-1c0.6,0,1,0.4,1,1v2.9c0,2.1,0.7,2.7,2,2.7
		c1.3,0,2.2-1,2.2-2.9l0,0v-3.4c0-0.7,0.6-1.3,1.3-1.3h74.9c1.2,0,2.1,1,2.1,2.1c0,0.1,0,0.1,0,0.2c0,1.3,1.1,2.4,2.4,2.4
		c1.3,0,2.4-1,2.4-3v-5.4C95.2,105.3,95.1,104.1,95,103.5"/>
</g>
</svg>
