<?xml version="1.0" encoding="utf-8"?>
<!-- Generator: Adobe Illustrator 16.0.0, SVG Export Plug-In . SVG Version: 6.00 Build 0)  -->
<!DOCTYPE svg PUBLIC "-//W3C//DTD SVG 1.1//EN" "http://www.w3.org/Graphics/SVG/1.1/DTD/svg11.dtd">
<svg version="1.1" id="Layer_1" xmlns="http://www.w3.org/2000/svg" xmlns:xlink="http://www.w3.org/1999/xlink" x="0px" y="0px"
	 width="261.7px" height="140.5px" viewBox="0 0 261.7 140.5" enable-background="new 0 0 261.7 140.5" xml:space="preserve">
<g>
	<path fill="#FFFFFF" d="M39.5,61.4h18.6c-0.1-0.2-0.1-0.3-0.2-0.5l-5.2-17.3h-7.9l-5.2,17.3C39.6,61.1,39.6,61.3,39.5,61.4"/>
	<path fill="#FFFFFF" d="M82.8,104.2h-68c-1.5,0.8-2.6,2.3-2.5,4.1c0,0.4,0.1,0.8,0.2,1.2h72.6c0.1-0.4,0.2-0.8,0.2-1.2
		C85.4,106.6,84.3,105,82.8,104.2"/>
	<path fill="#FFFFFF" d="M90.4,115.4c-0.2-1.4-1-2.6-2.2-3.3H9.3c-1.2,0.7-2,1.9-2.2,3.3c-0.1,0.7,0,1.4,0.3,2.1h82.8
		C90.4,116.8,90.5,116.1,90.4,115.4"/>
	<path fill="#FFFFFF" d="M36.8,74.4h23.9c-0.2-0.4-0.3-0.9-0.3-1.4v-0.9c0-1.2,1-2.2,2.2-2.2v-0.1c1.6,0,2.9-1.3,2.9-2.9
		c0-1.6-1.2-2.8-2.7-2.9h-28C33.2,64,32,65.3,32,66.9c0,1.6,1.3,2.9,2.9,2.9v0.1c1.2,0,2.2,1,2.2,2.2V73
		C37.1,73.5,37,73.9,36.8,74.4"/>
	<path fill="#FFFFFF" d="M44.1,41.1h9.4c1.8-0.4,2.8-2.4,1.8-4.1l-2.4-4.1c-0.6-1-1.6-1.5-2.7-1.5v0h-2.7v0c-1.1,0-2.1,0.6-2.7,1.5
		L42.3,37C41.3,38.7,42.3,40.7,44.1,41.1"/>
	<path fill="#FFFFFF" d="M16.7,80.6v7c0,3.5,2.1,6,4.5,10c0.6,1,0.5,2.8-0.1,4.2h54.7c-0.4-1.2-0.5-2.6,0-3.3c2.5-4.1,5-7.1,5-10.9
		v-7c0,0,0-2.9-2.9-3.7H19.6C16.7,77.7,16.7,80.6,16.7,80.6"/>
	<path fill="#FFFFFF" d="M47.4,29.2h2.8c3-0.6,5.2-3.3,5.2-6.5c0-1.4-0.4-2.7-1.1-3.7c0,0.1,0,0.2,0,0.4c0,3-2.5,5.5-5.5,5.5
		s-5.5-2.5-5.5-5.5c0-0.1,0-0.3,0-0.4c-0.7,1.1-1.1,2.3-1.1,3.7C42.2,25.9,44.4,28.5,47.4,29.2"/>
	<path fill="#FFFFFF" d="M96.2,122.5c-0.2-0.7-0.6-1.3-1.1-1.7c-0.6-0.6-1.4-0.8-2.2-0.8H4.3c-0.5,0-1,0.1-1.4,0.4
		c-1,0.7-1.6,1.8-1.8,3.1v13.8c0,0.1,0-0.1,0,0c0,2.9,1.9,3.3,3,3.3c1,0,2.9-0.8,2.9-3.4v-6.8c0-0.6,0.4-1,1-1c0.6,0,1,0.4,1,1v2.9
		c0,2.1,0.7,2.7,2,2.7c1.3,0,2.2-1,2.2-2.9l0,0v-3.4c0-0.7,0.6-1.3,1.3-1.3h74.9c1.2,0,2.1,1,2.1,2.1c0,0.1,0,0.1,0,0.2
		c0,1.3,1.1,2.4,2.4,2.4c1.3,0,2.4-1,2.4-3v-5.4C96.4,124.2,96.3,123,96.2,122.5"/>
	<polygon fill="#FFFFFF" points="97.5,103.9 89.2,103.9 89.2,101.9 95.5,101.9 95.5,2 2,2 2,101.9 8,101.9 8,103.9 0,103.9 0,0 
		97.5,0 	"/>
	<path fill="#FFFFFF" d="M124.8,23.5c1,0,1.5,0.5,1.5,1.5V58c0,1-0.5,1.5-1.5,1.5h-5.7c-1,0-1.5-0.6-1.5-1.5V25.1
		c0-1,0.6-1.5,1.5-1.5H124.8z"/>
	<path fill="#FFFFFF" d="M129.9,35.1c0-3.4,0.7-12.5,12.9-12.5c10.9,0,12.6,7.3,12.9,11.3c0.1,0.7-0.4,1.3-1.1,1.4l-5.7,1.3
		c-1.1,0.2-1.9-0.5-2.1-1.6c-0.3-2.3-1.2-3.6-4-3.6c-3.8,0-4.1,2.4-4.1,6.4v7.4c0,4,0.3,6.4,4.1,6.4c2.8,0,3.6-1.3,3.9-3.7
		c0.2-1.1,1-1.7,2-1.5l5.8,1.3c0.7,0.2,1.2,0.7,1.1,1.5c-0.2,3.9-1.9,11.3-12.9,11.3c-12.2,0-12.9-9.1-12.9-12.5V35.1z"/>
	<path fill="#FFFFFF" d="M181.8,23.5c1,0,1.5,0.5,1.5,1.5v5.8c0,1-0.5,1.5-1.5,1.5h-12.4c-1,0-1.5,0.5-1.5,1.5v1.6
		c0,1,0.6,1.5,1.5,1.5h8c1,0,1.5,0.5,1.5,1.5v5.8c0,1-0.5,1.5-1.5,1.5h-8c-1,0-1.5,0.5-1.5,1.5v1.6c0,1,0.6,1.5,1.5,1.5h12.4
		c1,0,1.5,0.5,1.5,1.5V58c0,1-0.5,1.5-1.5,1.5h-21.6c-1,0-1.5-0.6-1.5-1.5V25.1c0-1,0.6-1.5,1.5-1.5H181.8z"/>
	<path fill="#FFFFFF" d="M137,84.9c-1,0.2-1.5-0.3-1.7-1.3c-0.4-2.1-2.1-3.4-4.5-3.4c-2,0-3.2,1.2-3,2.4c0.7,4,17,3.9,17,15.7
		c0,1.5-1.7,10.6-13.9,10.6c-10.8,0-13.1-7.1-13.4-11.1c-0.1-0.9,0.4-1.5,1.3-1.7l5.8-1.3c1-0.2,1.6,0.3,1.7,1.3
		c0.2,2.5,2.1,3.9,4.5,3.9c2.5,0,4.4-1.5,4.1-2.9c-1-4.4-16.4-3.4-16.4-15.2c-0.1-1.5,0.9-10.6,12.4-10.6c10.6,0,13.1,6.9,13.4,10.6
		c0.1,0.9-0.4,1.5-1.3,1.7L137,84.9z"/>
	<path fill="#FFFFFF" d="M156.7,82.5c0-1-0.5-1.5-1.5-1.5H148c-1,0-1.5-0.6-1.5-1.5v-5.8c0-1,0.6-1.5,1.5-1.5h26.3
		c1,0,1.5,0.5,1.5,1.5v5.8c0,1-0.5,1.5-1.5,1.5h-7.2c-1,0-1.5,0.5-1.5,1.5v24.1c0,1-0.5,1.5-1.5,1.5h-5.8c-1,0-1.5-0.6-1.5-1.5V82.5
		z"/>
	<path fill="#FFFFFF" d="M185.8,72.1c1,0,1.5,0.5,1.5,1.5v20.1c0,4,0.3,6.4,4.1,6.4s4.1-2.4,4.1-6.4V73.7c0-1,0.6-1.5,1.5-1.5h5.8
		c1,0,1.5,0.5,1.5,1.5v22.9c0,3.4-0.7,12.5-12.9,12.5c-12.2,0-12.9-9.1-12.9-12.5V73.7c0-1,0.6-1.5,1.5-1.5H185.8z"/>
	<path fill="#FFFFFF" d="M221,72.1c9.1,0,12.9,3.9,12.9,12.3c0,8.4-3.7,12.3-12.9,12.3h-2.5c-1,0-1.5,0.5-1.5,1.5v8.2
		c0,1-0.5,1.5-1.5,1.5h-5.8c-1,0-1.5-0.6-1.5-1.5V73.7c0-1,0.5-1.5,1.5-1.6H221z M221.3,88c2.5,0,3.7-0.3,3.7-3.5s-1.2-3.5-3.7-3.5
		h-2.8c-1,0-1.5,0.5-1.5,1.5v3.9c0,1,0.6,1.5,1.5,1.5H221.3z"/>
	<path fill="#FFFFFF" d="M261.7,106.4c0,1.1-0.5,1.7-1.5,1.7h-5.8c-1,0-1.5-0.5-1.5-1.5v-4.5c0-1-0.5-1.5-1.5-1.5h-4.4
		c-1,0-1.5,0.5-1.5,1.5v4.5c0,1-0.5,1.5-1.5,1.5h-5.8c-1,0-1.5-0.6-1.5-1.7V84.6c0-6.5,1-13.4,12.6-13.4s12.6,6.9,12.6,13.4V106.4z
		 M252.9,84.6c0-2.5-0.4-3.7-3.8-3.7s-3.8,1.2-3.8,3.7v5.6c0,1,0.6,1.5,1.5,1.5h4.4c1-0.1,1.5-0.6,1.5-1.6V84.6z"/>
	<polygon fill="#FFFFFF" points="123,3.6 123,11.6 120.8,11.6 120.8,3.6 118,3.6 118,1.7 125.8,1.7 125.8,3.6 	"/>
	<polygon fill="#FFFFFF" points="136.2,1.7 138.3,1.7 138.3,11.6 136.2,11.6 136.2,7.7 132.2,7.7 132.2,11.6 130,11.6 130,1.7 
		132.2,1.7 132.2,5.8 136.2,5.8 	"/>
	<polygon fill="#FFFFFF" points="150.7,1.7 150.7,3.7 145.8,3.7 145.8,5.7 150.2,5.7 150.2,7.6 145.8,7.6 145.8,9.6 150.8,9.6 
		150.8,11.6 143.6,11.6 143.6,1.7 	"/>
	<path fill="#FFFFFF" d="M125.6,120.2c0.7,0.6,1,1.5,1,2.7c0,1.2-0.4,2.1-1.1,2.7s-1.8,0.8-3.2,0.8h-1.3v2.7h-2.2v-9.8h3.5
		C123.8,119.3,124.9,119.6,125.6,120.2 M124,124.1c0.3-0.3,0.4-0.7,0.4-1.3s-0.2-1-0.5-1.2c-0.3-0.2-0.9-0.4-1.6-0.4h-1.3v3.3h1.5
		C123.3,124.5,123.8,124.4,124,124.1"/>
	<path fill="#FFFFFF" d="M139.1,122.6c0,1.6-0.6,2.6-1.9,3.1l2.5,3.5H137l-2.2-3.1h-1.5v3.1h-2.2v-9.8h3.7c1.5,0,2.6,0.3,3.3,0.8
		C138.8,120.6,139.1,121.4,139.1,122.6 M136.5,123.8c0.3-0.2,0.4-0.6,0.4-1.2c0-0.5-0.1-0.9-0.4-1.1c-0.3-0.2-0.8-0.3-1.5-0.3h-1.6
		v2.9h1.6C135.7,124.1,136.2,124,136.5,123.8"/>
	<path fill="#FFFFFF" d="M152.3,127.8c-1,1-2.2,1.5-3.7,1.5c-1.5,0-2.7-0.5-3.7-1.5s-1.5-2.2-1.5-3.6c0-1.4,0.5-2.7,1.5-3.6
		c1-1,2.2-1.5,3.7-1.5c1.5,0,2.7,0.5,3.7,1.5c1,1,1.5,2.2,1.5,3.6C153.8,125.6,153.3,126.8,152.3,127.8 M151.5,124.2
		c0-0.9-0.3-1.6-0.8-2.2c-0.6-0.6-1.3-0.9-2.1-0.9c-0.8,0-1.5,0.3-2.1,0.9s-0.8,1.4-0.8,2.2c0,0.9,0.3,1.6,0.8,2.2
		c0.6,0.6,1.3,0.9,2.1,0.9c0.8,0,1.5-0.3,2.1-0.9C151.2,125.8,151.5,125.1,151.5,124.2"/>
	<path fill="#FFFFFF" d="M158.3,121.2v-1.9h5.1v6.4c0,1.2-0.3,2.1-0.9,2.6c-0.6,0.6-1.4,0.9-2.3,0.9c-1.2,0-2.2-0.5-3.1-1.4l1.1-1.6
		c0.6,0.6,1.2,1,1.9,1c0.3,0,0.6-0.1,0.8-0.4c0.2-0.2,0.3-0.6,0.3-1.1v-4.6H158.3z"/>
	<polygon fill="#FFFFFF" points="175.7,119.3 175.7,121.3 170.8,121.3 170.8,123.3 175.2,123.3 175.2,125.2 170.8,125.2 
		170.8,127.2 175.9,127.2 175.9,129.2 168.6,129.2 168.6,119.3 	"/>
	<path fill="#FFFFFF" d="M185,127.2c1.1,0,2-0.4,2.6-1.3l1.4,1.5c-1.1,1.3-2.4,1.9-4,1.9c-1.5,0-2.8-0.5-3.7-1.4
		c-1-1-1.5-2.2-1.5-3.6s0.5-2.7,1.5-3.7c1-1,2.2-1.5,3.7-1.5c1.6,0,3,0.6,4.1,1.8l-1.4,1.5c-0.7-0.9-1.6-1.3-2.6-1.3
		c-0.8,0-1.5,0.3-2.1,0.8s-0.9,1.3-0.9,2.2s0.3,1.6,0.8,2.2C183.6,126.9,184.2,127.2,185,127.2"/>
	<polygon fill="#FFFFFF" points="198,121.2 198,129.2 195.8,129.2 195.8,121.2 193,121.2 193,119.3 200.8,119.3 200.8,121.2 	"/>
</g>
</svg>
