<?xml version="1.0" encoding="utf-8"?>
<!-- Generator: Adobe Illustrator 16.0.0, SVG Export Plug-In . SVG Version: 6.00 Build 0)  -->
<!DOCTYPE svg PUBLIC "-//W3C//DTD SVG 1.1//EN" "http://www.w3.org/Graphics/SVG/1.1/DTD/svg11.dtd">
<svg version="1.1" id="Layer_1" xmlns="http://www.w3.org/2000/svg" xmlns:xlink="http://www.w3.org/1999/xlink" x="0px" y="0px"
	 width="100.8px" height="144px" viewBox="0 0 100.8 144" enable-background="new 0 0 100.8 144" xml:space="preserve">
<g>
	<defs>
		<rect id="SVGID_1_" width="100.8" height="144"/>
	</defs>
	<clipPath id="SVGID_2_">
		<use xlink:href="#SVGID_1_"  overflow="visible"/>
	</clipPath>
	<g clip-path="url(#SVGID_2_)">
		<defs>
			<rect id="SVGID_3_" width="100.8" height="144"/>
		</defs>
		<clipPath id="SVGID_4_">
			<use xlink:href="#SVGID_3_"  overflow="visible"/>
		</clipPath>
		<path clip-path="url(#SVGID_4_)" fill="#FFFFFF" d="M41.14,62.7H59.7c-0.06-0.16-0.12-0.32-0.16-0.5l-5.18-17.32h-7.87L41.3,62.2
			C41.26,62.37,41.2,62.53,41.14,62.7"/>
		<path clip-path="url(#SVGID_4_)" fill="#FFFFFF" d="M84.44,105.48H16.4c-1.52,0.79-2.6,2.34-2.52,4.13
			c0.02,0.42,0.11,0.81,0.23,1.19h72.62c0.12-0.38,0.22-0.77,0.24-1.19C87.04,107.82,85.97,106.27,84.44,105.48"/>
		<path clip-path="url(#SVGID_4_)" fill="#FFFFFF" d="M92.06,116.62c-0.16-1.43-1.02-2.61-2.2-3.31H10.98
			c-1.18,0.7-2.04,1.88-2.2,3.31c-0.08,0.73,0.02,1.43,0.26,2.06H91.8C92.04,118.05,92.14,117.35,92.06,116.62"/>
		<path clip-path="url(#SVGID_4_)" fill="#FFFFFF" d="M38.47,75.62h23.9c-0.18-0.44-0.28-0.91-0.28-1.41v-0.86
			c0-1.2,0.98-2.18,2.18-2.18v-0.1c1.6-0.03,2.9-1.33,2.9-2.94c0-1.56-1.21-2.81-2.74-2.93H36.41c-1.53,0.11-2.74,1.37-2.74,2.93
			c0,1.61,1.29,2.92,2.9,2.94v0.1c1.2,0,2.18,0.98,2.18,2.18v0.86C38.75,74.71,38.65,75.19,38.47,75.62"/>
		<path clip-path="url(#SVGID_4_)" fill="#FFFFFF" d="M45.72,42.38h9.41c1.79-0.38,2.78-2.44,1.79-4.11l-2.44-4.09
			c-0.57-0.95-1.59-1.54-2.71-1.54v-0.01h-2.71v0.01c-1.11,0-2.14,0.58-2.7,1.54l-2.44,4.09C42.93,39.93,43.93,42,45.72,42.38"/>
		<path clip-path="url(#SVGID_4_)" fill="#FFFFFF" d="M18.37,81.85v6.97c0,3.49,2.14,6.03,4.48,9.96c0.61,1.02,0.46,2.81-0.15,4.2
			h54.74c-0.4-1.17-0.46-2.56,0-3.3c2.55-4.12,5.03-7.1,5.03-10.86v-6.97c0,0,0.05-2.93-2.88-3.73H21.25
			C18.32,78.91,18.37,81.85,18.37,81.85"/>
		<path clip-path="url(#SVGID_4_)" fill="#FFFFFF" d="M49.04,30.43h2.77c3-0.64,5.25-3.3,5.25-6.48c0-1.38-0.42-2.67-1.15-3.73
			c0.01,0.12,0.02,0.25,0.02,0.38c0,3.04-2.46,5.5-5.5,5.5s-5.5-2.46-5.5-5.5c0-0.13,0.01-0.25,0.02-0.38
			c-0.72,1.06-1.15,2.34-1.15,3.73C43.79,27.13,46.04,29.79,49.04,30.43"/>
		<path clip-path="url(#SVGID_4_)" fill="#FFFFFF" d="M97.8,123.76c-0.15-0.69-0.6-1.26-1.09-1.74c-0.57-0.56-1.36-0.83-2.15-0.83
			H5.96c-0.49,0-0.97,0.14-1.36,0.44c-0.96,0.72-1.64,1.8-1.76,3.07v13.76c0,0.07,0-0.07,0,0c0,2.86,1.87,3.3,2.97,3.3
			c1.02,0,2.92-0.8,2.92-3.37v-6.77c0-0.55,0.45-1,1-1c0.55,0,1,0.45,1,1v2.95c0,2.07,0.65,2.73,2.05,2.73
			c1.31,0,2.16-1.05,2.16-2.94l-0.01-0.03v-3.42c0-0.7,0.57-1.27,1.27-1.27h74.86c1.18,0,2.14,0.96,2.14,2.14
			c0,0.05-0.02,0.1-0.02,0.15c0,1.33,1.07,2.42,2.4,2.42c1.29,0,2.35-0.96,2.35-3.02v-5.41C98.01,125.51,97.92,124.28,97.8,123.76"
			/>
		<g opacity="0.7" clip-path="url(#SVGID_4_)">
			<g>
				<defs>
					<rect id="SVGID_5_" x="1.64" y="1.26" width="97.52" height="103.92"/>
				</defs>
				<clipPath id="SVGID_6_">
					<use xlink:href="#SVGID_5_"  overflow="visible"/>
				</clipPath>
				<polyline clip-path="url(#SVGID_6_)" fill="none" stroke="#FFFFFF" stroke-width="2" stroke-miterlimit="10" points="
					90.8,104.18 98.16,104.18 98.16,2.26 2.64,2.26 2.64,104.18 9.63,104.18 				"/>
			</g>
		</g>
	</g>
</g>
</svg>
